<svg focusable="false" viewBox="0 0 24 24"><path d="M6.2,8.2H4.4C4.2,8.2,4,8.4,4,8.6l0,0c0,0.5,0.6,2.7,2.8,5.7c1.2,1.8,3.1,2.9,5.2,3.1c1.1,0,1.3-0.2,1.3-0.6
    v-1.5c0-0.4,0.1-0.5,0.4-0.5s0.7,0.1,1.7,1.1c1.2,1.1,1.3,1.6,1.9,1.6h2c0.2,0,0.4-0.1,0.4-0.4s-0.6-1.2-1.5-2.2
    c-0.4-0.5-1-1-1.2-1.3s-0.2-0.4,0-0.8l0,0c0.9-1.2,1.6-2.5,2.2-3.8c0.1-0.3-0.1-0.5-0.4-0.5H17c-0.3,0-0.6,0.2-0.7,0.4
    c-0.6,1.2-1.3,2.3-2.1,3.4c-0.4,0.4-0.6,0.5-0.8,0.5s-0.2-0.1-0.2-0.5V8.8c0-0.5-0.1-0.6-0.4-0.6h-3c-0.2,0-0.3,0.1-0.3,0.3l0,0
    c0,0.4,0.7,0.5,0.7,1.7v2.4c0,0.5,0,0.7-0.3,0.7c-0.6,0-2.1-2.1-2.9-4.5C6.8,8.3,6.6,8.2,6.2,8.2z M12,0c6.6,0,12,5.4,12,12
    s-5.4,12-12,12S0,18.6,0,12S5.4,0,12,0z"></path></svg>