<svg height="100px" viewBox="0 -19 492 492" width="100px" xmlns="http://www.w3.org/2000/svg" xmlns:xlink="http://www.w3.org/1999/xlink"><linearGradient id="lg1"><stop offset=".322" stop-color="#a163f5"/><stop offset=".466" stop-color="#b074ee"/><stop offset=".752" stop-color="#d8a1dd"/><stop offset=".898" stop-color="#efbad3"/></linearGradient><linearGradient id="linear0" gradientUnits="userSpaceOnUse" x1="247.146" x2="247.146" xlink:href="#lg1" y1="465" y2="-2.097"/><linearGradient id="linear1" gradientUnits="userSpaceOnUse" x1="246" x2="246" xlink:href="#lg1" y1="465" y2="-2.097"/><linearGradient id="linear2" gradientUnits="userSpaceOnUse" x1="414.958" x2="414.958" xlink:href="#lg1" y1="465" y2="-2.097"/><linearGradient id="linear3" gradientUnits="userSpaceOnUse" x1="413.812" x2="413.813" xlink:href="#lg1" y1="465" y2="-2.097"/><linearGradient id="linear4" gradientUnits="userSpaceOnUse" x1="79.333" x2="79.333" xlink:href="#lg1" y1="465" y2="-2.097"/><linearGradient id="linear5" gradientUnits="userSpaceOnUse" x1="78.187" x2="78.188" xlink:href="#lg1" y1="465" y2="-2.097"/><linearGradient id="linear8" gradientUnits="userSpaceOnUse" x1="236.612" x2="236.612" xlink:href="#lg1" y1="465" y2="-2.097"/><linearGradient id="linear9" gradientUnits="userSpaceOnUse" x1="236.763" x2="236.763" xlink:href="#lg1" y1="465" y2="-2.097"/><linearGradient id="linear10" gradientUnits="userSpaceOnUse" x1="271.116" x2="271.116" xlink:href="#lg1" y1="465" y2="-2.097"/><linearGradient id="linear11" gradientUnits="userSpaceOnUse" x1="202.259" x2="202.259" xlink:href="#lg1" y1="465" y2="-2.097"/><path d="m201.042969 319.34375c0 25.460938 20.640625 46.101562 46.097656 46.101562 25.460937 0 46.101563-20.640624 46.101563-46.101562s-20.640626-46.101562-46.101563-46.101562c-25.445313.03125-46.066406 20.652343-46.097656 46.101562zm80.207031 0c0 18.832031-15.265625 34.101562-34.101562 34.101562-18.832032 0-34.097657-15.269531-34.097657-34.101562s15.265625-34.101562 34.097657-34.101562c18.824218.027343 34.078124 15.277343 34.101562 34.101562zm0 0" fill="url(#linear0)"/><path d="m246 370.0625c-43.136719-.011719-78.128906 34.925781-78.1875 78.0625.007812 1.578125.644531 3.085938 1.773438 4.191406 1.125 1.105469 2.648437 1.710938 4.226562 1.683594h144.375c1.578125.027344 3.101562-.578125 4.226562-1.683594 1.128907-1.105468 1.765626-2.613281 1.773438-4.191406-.058594-43.136719-35.050781-78.074219-78.1875-78.0625zm-65.917969 71.9375c3.042969-33 31.445313-60.1875 65.917969-60.1875s62.875 27.1875 65.917969 60.1875zm0 0" fill="url(#linear1)"/><path d="m368.855469 319.34375c0 25.460938 20.636719 46.101562 46.097656 46.101562s46.101563-20.640624 46.101563-46.101562-20.640626-46.101562-46.101563-46.101562c-25.445313.03125-46.066406 20.652343-46.097656 46.101562zm80.207031 0c0 18.832031-15.269531 34.101562-34.101562 34.101562-18.832032 0-34.097657-15.269531-34.097657-34.101562s15.265625-34.101562 34.097657-34.101562c18.824218.027343 34.078124 15.277343 34.101562 34.101562zm0 0" fill="url(#linear2)"/><path d="m413.8125 370.0625c-43.136719-.011719-78.128906 34.925781-78.1875 78.0625.007812 1.578125.644531 3.085938 1.773438 4.191406 1.125 1.105469 2.648437 1.710938 4.226562 1.683594h144.375c1.578125.027344 3.101562-.578125 4.226562-1.683594 1.128907-1.105468 1.765626-2.613281 1.773438-4.191406-.058594-43.136719-35.050781-78.074219-78.1875-78.0625zm-65.914062 71.9375c3.042968-33 31.445312-60.1875 65.917968-60.1875s62.871094 27.1875 65.914063 60.1875zm0 0" fill="url(#linear3)"/><path d="m79.332031 365.449219c25.460938 0 46.101563-20.640625 46.101563-46.101563 0-25.460937-20.640625-46.101562-46.101563-46.101562-25.460937 0-46.097656 20.640625-46.097656 46.101562.03125 25.449219 20.652344 46.070313 46.097656 46.101563zm0-80.210938c18.832031 0 34.101563 15.269531 34.101563 34.101563 0 18.832031-15.269532 34.101562-34.101563 34.101562s-34.097656-15.269531-34.097656-34.101562c.023437-18.824219 15.277344-34.074219 34.097656-34.101563zm0 0" fill="url(#linear4)"/><path d="m78.1875 370.0625c-43.136719-.011719-78.1289062 34.925781-78.1875 78.0625.0078125 1.578125.644531 3.085938 1.773438 4.191406 1.125 1.105469 2.648437 1.710938 4.226562 1.683594h144.375c1.578125.027344 3.101562-.578125 4.226562-1.683594 1.128907-1.105468 1.765626-2.613281 1.773438-4.191406-.058594-43.136719-35.050781-78.074219-78.1875-78.0625zm-65.917969 71.9375c3.042969-33 31.445313-60.1875 65.917969-60.1875s62.875 27.1875 65.914062 60.1875zm0 0" fill="url(#linear5)"/><path d="m430 26c0-14.359375-11.640625-26-26-26h-316c-14.359375 0-26 11.640625-26 26v204c0 14.359375 11.640625 26 26 26h316c14.359375 0 26-11.640625 26-26zm-12 204c0 7.730469-6.269531 14-14 14h-316c-7.730469 0-14-6.269531-14-14v-204c0-7.730469 6.269531-14 14-14h316c7.730469 0 14 6.269531 14 14zm0 0" fill="url(#linear1)"/><path d="m231.042969 187.910156c.285156.050782.578125.082032.871093.089844h.046876c1.566406 0 3.136718.160156 4.726562.160156s3.160156-.160156 4.726562-.160156h76.1875c.582032-.078125 1.15625.191406 1.472657.6875.316406.496094.316406 1.128906 0 1.625-.316407.496094-.890625.765625-1.472657.6875h-28.289062c-12.183594.105469-22 10.007812-22 22.191406.011719 3.3125 2.710938 5.988282 6.023438 5.976563 3.3125-.015625 5.988281-2.710938 5.976562-6.023438-.003906-5.550781 4.453125-10.070312 10-10.144531h28.289062c7.453126 0 13.5-6.042969 13.5-13.5s-6.046874-13.5-13.5-13.5h-39.753906c20.941406-14 34.839844-37.113281 34.839844-63.859375.011719-41.242187-32.871094-74.96875-74.101562-75.996094-41.230469-1.03125-75.757813 31.007813-77.804688 72.203125-2.046875 41.191406 29.132812 76.496094 70.261719 79.5625zm5.644531-139.789062c35.335938.050781 63.960938 28.6875 64 64.019531 0 33.839844-26.398438 61.859375-59.6875 63.859375h-8.625c-33.285156-2-59.6875-30.019531-59.6875-63.859375.039062-35.332031 28.667969-63.972656 64-64.019531zm0 0" fill="url(#linear1)"/><path d="m236.613281 96.6875c9.0625 0 16.867188-6.402344 18.632813-15.292969 1.769531-8.890625-2.988282-17.789062-11.363282-21.257812s-18.035156-.539063-23.070312 6.996093c-5.035156 7.539063-4.042969 17.582032 2.367188 23.992188 3.554687 3.574219 8.390624 5.578125 13.433593 5.5625zm-4.949219-23.945312c2.734376-2.734376 7.164063-2.734376 9.898438 0 2.734375 2.734374 2.734375 7.164062 0 9.898437s-7.164062 2.734375-9.898438 0c-1.324218-1.304687-2.070312-3.089844-2.070312-4.949219s.746094-3.644531 2.070312-4.949218zm0 0" fill="url(#linear8)"/><path d="m236.761719 127.550781c-9.0625 0-16.867188 6.402344-18.632813 15.292969-1.769531 8.890625 2.988282 17.789062 11.363282 21.257812 8.371093 3.472657 18.03125.542969 23.066406-6.996093 5.039062-7.535157 4.046875-17.582031-2.363282-23.992188-3.554687-3.574219-8.390624-5.578125-13.433593-5.5625zm4.949219 23.945313c-2.734376 2.734375-7.164063 2.734375-9.898438 0s-2.734375-7.164063 0-9.898438 7.164062-2.734375 9.898438 0c2.734374 2.734375 2.734374 7.164063 0 9.898438zm0 0" fill="url(#linear9)"/><path d="m257.683594 125.628906c6.410156 6.410156 16.453125 7.398438 23.992187 2.363282 7.535157-5.039063 10.464844-14.695313 6.996094-23.070313s-12.371094-13.132813-21.261719-11.363281c-8.890625 1.769531-15.292968 9.570312-15.292968 18.636718-.011719 5.039063 1.992187 9.878907 5.566406 13.433594zm8.484375-18.382812c2.734375-2.734375 7.167969-2.734375 9.898437 0 2.734375 2.734375 2.734375 7.167968 0 9.898437-2.730468 2.734375-7.164062 2.734375-9.898437 0-2.734375-2.730469-2.734375-7.164062 0-9.898437zm0 0" fill="url(#linear10)"/><path d="m215.691406 125.476562c6.425782-6.410156 7.425782-16.464843 2.390625-24.015624-5.035156-7.550782-14.703125-10.492188-23.089843-7.023438-8.390626 3.46875-13.15625 12.378906-11.390626 21.28125 1.769532 8.902344 9.582032 15.3125 18.65625 15.3125 5.039063 0 9.867188-1.996094 13.433594-5.554688zm-18.382812-8.484374c-2.730469-2.734376-2.730469-7.164063 0-9.898438 2.734375-2.734375 7.167968-2.734375 9.902344 0 2.730468 2.734375 2.734374 7.164062 0 9.898438-2.734376 2.730468-7.164063 2.730468-9.902344 0zm0 0" fill="url(#linear11)"/></svg>