<svg id="Cinema" height="70" viewBox="0 0 64 64" width="70" xmlns="http://www.w3.org/2000/svg" xmlns:xlink="http://www.w3.org/1999/xlink"><linearGradient id="linear-gradient" gradientUnits="userSpaceOnUse" x1="-2.349" x2="57.722" y1="60.739" y2="2.502"><stop offset=".133" stop-color="#a617ff"/><stop offset=".477" stop-color="#6359e3"/><stop offset="1" stop-color="#5bcbfa"/></linearGradient><linearGradient id="linear-gradient-2" x1="-4.287" x2="55.784" xlink:href="#linear-gradient" y1="58.74" y2=".503"/><linearGradient id="linear-gradient-3" x1="-.411" x2="59.66" xlink:href="#linear-gradient" y1="62.738" y2="4.501"/><linearGradient id="linear-gradient-4" x1="-6.205" x2="53.866" xlink:href="#linear-gradient" y1="56.761" y2="-1.476"/><linearGradient id="linear-gradient-5" x1="3.465" x2="63.536" xlink:href="#linear-gradient" y1="66.736" y2="8.499"/><linearGradient id="linear-gradient-6" x1="7.341" x2="67.412" xlink:href="#linear-gradient" y1="70.734" y2="12.497"/><linearGradient id="linear-gradient-7" x1="9.09" x2="69.161" xlink:href="#linear-gradient" y1="72.538" y2="14.301"/><linearGradient id="linear-gradient-8" x1="-18.854" x2="41.217" xlink:href="#linear-gradient" y1="43.713" y2="-14.524"/><linearGradient id="linear-gradient-9" x1="1.527" x2="61.598" xlink:href="#linear-gradient" y1="64.737" y2="6.5"/><linearGradient id="linear-gradient-10" x1="-2.606" x2="57.465" xlink:href="#linear-gradient" y1="60.474" y2="2.237"/><linearGradient id="linear-gradient-11" x1="18.555" x2="78.626" xlink:href="#linear-gradient" y1="82.301" y2="24.064"/><linearGradient id="linear-gradient-12" x1="-17.277" x2="42.794" xlink:href="#linear-gradient" y1="45.341" y2="-12.896"/><linearGradient id="linear-gradient-13" x1="6.927" x2="66.998" xlink:href="#linear-gradient" y1="70.307" y2="12.07"/><linearGradient id="linear-gradient-14" x1="5.403" x2="65.474" xlink:href="#linear-gradient" y1="68.735" y2="10.498"/><linearGradient id="linear-gradient-15" x1="-4.701" x2="55.37" xlink:href="#linear-gradient" y1="58.313" y2=".076"/><linearGradient id="linear-gradient-16" x1="-12.597" x2="47.474" xlink:href="#linear-gradient" y1="50.167" y2="-8.069"/><linearGradient id="linear-gradient-17" x1="7.683" x2="67.754" xlink:href="#linear-gradient" y1="71.087" y2="12.85"/><path d="m33 21h2v9h-2z" fill="url(#linear-gradient)"/><path d="m29 21h2v9h-2z" fill="url(#linear-gradient-2)"/><path d="m37 21h2v9h-2z" fill="url(#linear-gradient-3)"/><path d="m25.78 30h1.22v-9h-1.92z" fill="url(#linear-gradient-4)"/><path d="m45 21h2v9h-2z" fill="url(#linear-gradient-5)"/><path d="m53 21h2v9h-2z" fill="url(#linear-gradient-6)"/><path d="m57 30h1.22l.7-9h-1.92z" fill="url(#linear-gradient-7)"/><path d="m29 10.03v-.03a1 1 0 0 0 -1-1h-16v-6h-2v6h-3a1 1 0 0 0 -1 1v1h22.03a4.694 4.694 0 0 1 .97-.97z" fill="url(#linear-gradient-8)"/><path d="m41 21h2v9h-2z" fill="url(#linear-gradient-9)"/><path d="m29.11 14.74a.97.97 0 0 1 -.16.87 1.014 1.014 0 0 1 -.8.4c-.03 0-.14-.01-.17-.01a2 2 0 0 0 -1.98 2 1.932 1.932 0 0 0 .28 1h31.53a3.06 3.06 0 0 0 .19-1 3.009 3.009 0 0 0 -3-3 2.949 2.949 0 0 0 -.74.11.965.965 0 0 1 -.87-.16 1.014 1.014 0 0 1 -.4-.8c0-.03.01-.14.01-.17a1.993 1.993 0 0 0 -1.87-1.96 1 1 0 0 1 -.86-.63.99.99 0 0 1 .2-1.05 1.983 1.983 0 0 0 -2.14-3.21 1 1 0 0 1 -.92-.12.983.983 0 0 1 -.43-.82 2.105 2.105 0 0 1 .02-.25 2 2 0 0 0 -4 .06 1.954 1.954 0 0 0 .21.87.994.994 0 0 1 -1.34 1.34 1.991 1.991 0 0 0 -2.54.69 1.03 1.03 0 0 1 -1.66 0 2 2 0 0 0 -3.67 1.1.662.662 0 0 1 .01.15 1.014 1.014 0 0 1 -.4.8.97.97 0 0 1 -.87.16 2.949 2.949 0 0 0 -.74-.11 3.009 3.009 0 0 0 -3 3 2.949 2.949 0 0 0 .11.74z" fill="url(#linear-gradient-10)"/><path d="m59.93 36h.07v-4h-8v28h8v-4h-.07a4.006 4.006 0 1 1 0-8h.07v-4h-.07a4.006 4.006 0 1 1 0-8z" fill="url(#linear-gradient-11)"/><path d="m27 14.13v-.13a5.468 5.468 0 0 1 .1-1h-23.1v2h21.37a3.849 3.849 0 0 1 1.63-.87z" fill="url(#linear-gradient-12)"/><path d="m14 60h36v-28h-36zm7.06-17.34a1 1 0 0 1 .94-.66h6.341l2.74-6.394a1 1 0 0 1 1.838 0l2.74 6.394h6.341a1 1 0 0 1 .64 1.768l-5.454 4.545 2.751 7.336a1 1 0 0 1 -1.518 1.165l-6.419-4.585-6.419 4.585a1 1 0 0 1 -1.518-1.165l2.751-7.336-5.454-4.545a1 1 0 0 1 -.3-1.108z" fill="url(#linear-gradient-13)"/><path d="m49 21h2v9h-2z" fill="url(#linear-gradient-14)"/><path d="m4 36h.07a4.006 4.006 0 1 1 0 8h-.07v4h.07a4.006 4.006 0 1 1 0 8h-.07v4h8v-28h-8z" fill="url(#linear-gradient-15)"/><path d="m6.05 17 .69 13h17.03l-.77-9.92a1.01 1.01 0 0 1 1-1.08h.14a4.16 4.16 0 0 1 -.14-1 4.091 4.091 0 0 1 .14-1z" fill="url(#linear-gradient-16)"/><path d="m28.937 48.351-1.849 4.929 4.331-3.094a1 1 0 0 1 1.162 0l4.331 3.094-1.849-4.929a1 1 0 0 1 .3-1.119l3.875-3.232h-4.238a1 1 0 0 1 -.919-.606l-2.081-4.855-2.081 4.855a1 1 0 0 1 -.919.606h-4.238l3.878 3.232a1 1 0 0 1 .297 1.119z" fill="url(#linear-gradient-17)"/></svg>